<svg xmlns="http://www.w3.org/2000/svg" width="1280" height="1280" viewBox="0 0 1280 1280">
  <defs>
    <style>
      .cls-1 {
        fill: #24282f;
      }

      .cls-1, .cls-2, .cls-5, .cls-6, .cls-7 {
        fill-rule: evenodd;
      }

      .cls-2, .cls-5 {
        fill: #1a9fff;
      }

      .cls-2 {
        opacity: 0;
      }

      .cls-3 {
        fill: #233444;
      }

      .cls-4 {
        fill: #224059;
      }

      .cls-6 {
        fill: #1d76b8;
      }

      .cls-7 {
        fill: #214f74;
      }
    </style>
  </defs>
  <path id="SP_black_" data-name="SP (black)" class="cls-1" d="M386.441,228.894c-111.43-1.112,14.883.138-171.214,0C72.03,228.789.848,278.326,0.848,402.172c0,38.7,12.578,78.372,34.832,111.269,55.15,72.566,143.2,112.236,213.829,167.386,34.832,24.189,54.183,53.215,54.183,95.787,0,55.151-27.092,85.145-84.177,85.145-66.761,0-88.048-51.28-85.145-121.911V697.275H-1.087v53.216c0,129.651,57.515,203.249,220.063,203.249,132.555,0,223.7-.008,223.7,0,0,62.89-14.173-298.069-60.616-343.544-37.734-36.767-119.976-90.95-164.483-119.009-42.573-27.091-77.4-48.378-77.4-103.528,0-49.345,29.027-67.728,74.5-67.728,74.5,0,.261-1.68,171.764.194V228.894Zm134.964,105.55h61.924c76.436,0,109.333,12.578,109.333,95.787,0,88.047-39.67,113.2-98.69,113.2H521.405V334.444Zm0,619.232V649.865h90.95c52.248,0.968,109.333-9.675,151.906-43.539,51.28-40.638,67.728-110.3,67.728-172.224,0-101.593-39.705-205.208-169.357-205.208H386.441l-0.493,724.782H521.405ZM284.927,340.451a77.485,77.485,0,1,1-77.484,77.485A77.485,77.485,0,0,1,284.927,340.451ZM222.329,726.9A48.008,48.008,0,1,1,174.321,774.9,48.006,48.006,0,0,1,222.329,726.9Z"/>
  <path id="_-IS_black_" data-name="-IS (black)" class="cls-1" d="M891.025,953.676l0.308-724.782H755.112l0.456,724.782H891.025ZM1261.6,448.615c-0.97-71.6,5.46-219.721-210.3-219.721-217.4,0-216.2-.2-216.2,0,0,38.7,15.3,251.65,37.55,284.547,55.151,72.566,143.2,112.236,213.825,167.386,34.84,24.189,54.19,53.215,54.19,95.787,0,55.151-27.09,85.145-84.18,85.145-66.761,0-88.047-51.28-85.144-121.911V697.275H835.878l0.467,256.465H1056.3c132.55,0,223.68-54.247,223.68-191.639,0-62.891-14.51-106.43-60.95-151.9-37.74-36.767-119.98-90.95-164.49-119.009-42.57-27.091-77.4-48.378-77.4-103.528,0-49.345,29.029-67.728,74.5-67.728,74.5,0,80.31,63.858,79.34,128.684H1261.6Z"/>
  <path id="SP-_blue_" data-name="SP- (blue)" class="cls-2" d="M386.441,228.894c-111.43-1.112,14.883.138-171.214,0C72.03,228.789.848,278.326,0.848,402.172c0,38.7,12.578,78.372,34.832,111.269,55.15,72.566,143.2,112.236,213.829,167.386,34.832,24.189,54.183,53.215,54.183,95.787,0,55.151-27.092,85.145-84.177,85.145-66.761,0-88.048-51.28-85.145-121.911V697.275H-1.087v53.216c0,129.651,57.515,203.249,220.063,203.249,132.555,0,223.7-.008,223.7,0,0,62.89-14.173-298.069-60.616-343.544-37.734-36.767-119.976-90.95-164.483-119.009-42.573-27.091-77.4-48.378-77.4-103.528,0-49.345,29.027-67.728,74.5-67.728,74.5,0,.261-1.68,171.764.194V228.894ZM284.927,340.451a77.485,77.485,0,1,1-77.484,77.485A77.485,77.485,0,0,1,284.927,340.451ZM222.329,726.9A48.008,48.008,0,1,1,174.321,774.9,48.006,48.006,0,0,1,222.329,726.9Z"/>
  <circle id="SP-_blue_copy_2" data-name="SP- (blue) copy 2" class="cls-3" cx="222.328" cy="774.906" r="48.016"/>
  <circle id="SP-_blue_copy_3" data-name="SP- (blue) copy 3" class="cls-4" cx="284.922" cy="417.922" r="77.484"/>
  <path id="_-IS_blue_copy_2" data-name="-IS (blue) copy 2" class="cls-5" d="M1261.6,448.615c-0.97-71.6,5.46-219.721-210.3-219.721-217.4,0-216.2-.2-216.2,0,0,38.7,15.3,251.65,37.55,284.547,55.151,72.566,143.2,112.236,213.825,167.386,34.84,24.189,54.19,53.215,54.19,95.787,0,55.151-27.09,85.145-84.18,85.145-66.761,0-88.047-51.28-85.144-121.911V697.275H835.878l0.467,256.465H1056.3c132.55,0,223.68-54.247,223.68-191.639,0-62.891-14.51-106.43-60.95-151.9-37.74-36.767-119.98-90.95-164.49-119.009-42.57-27.091-77.4-48.378-77.4-103.528,0-49.345,29.029-67.728,74.5-67.728,74.5,0,80.31,63.858,79.34,128.684H1261.6Z"/>
  <path id="_-IS_blue_" data-name="-IS (blue)" class="cls-6" d="M891.025,953.676l0.308-724.782H755.112l0.456,724.782H891.025Z"/>
  <path id="SP-_blue_copy" data-name="SP- (blue) copy" class="cls-7" d="M521.405,334.444h61.924c76.436,0,109.333,12.578,109.333,95.787,0,88.047-39.67,113.2-98.69,113.2H521.405V334.444Zm0,619.232V649.865h90.95c52.248,0.968,109.333-9.675,151.906-43.539,51.28-40.638,67.728-110.3,67.728-172.224,0-101.593-39.705-205.208-169.357-205.208H386.441l-0.493,724.782H521.405Z"/>
</svg>
