<svg xmlns="http://www.w3.org/2000/svg" width="1280" height="1280" viewBox="0 0 1280 1280">
  <defs>
    <style>
      .cls-1 {
        fill: #224059;
      }

      .cls-1, .cls-2, .cls-3, .cls-4 {
        fill-rule: evenodd;
      }

      .cls-2 {
        fill: #214f74;
      }

      .cls-3 {
        fill: #1a9fff;
      }

      .cls-4 {
        fill: #1d76b8;
      }
    </style>
  </defs>
  <path id="SP_black_copy_2" data-name="SP (black) copy 2" class="cls-1" d="M442.834,240.357c-121.721-1.215,16.257.15-187.026,0-156.422-.116-234.177,54-234.177,189.28,0,42.277,13.74,85.61,38.049,121.545,60.243,79.267,156.422,122.6,233.576,182.844,38.048,26.423,59.187,58.13,59.187,104.634,0,60.244-29.064,56.131-91.421,56.131-72.927,0-96.709-19.139-93.538-96.293v-46.5H19.517v58.13c0,141.625,62.826,222.016,240.387,222.016H504.266c0,68.7-15.482-325.593-66.214-375.268-41.219-40.162-131.056-99.349-179.674-130-46.5-29.594-84.553-52.846-84.553-113.089,0-53.9,31.708-51.044,81.382-51.044,81.382,0,.286-1.835,187.627.212V240.357Zm147.429,115.3h67.642c83.5,0,119.43,13.74,119.43,104.634,0,96.178-43.333,123.658-107.8,123.658H590.263V355.654Zm0,676.416V700.205h99.349c57.073,1.057,119.43-10.569,165.934-47.561,56.016-44.39,73.984-120.487,73.984-188.129,0-110.975-43.373-224.158-185-224.158h-301.7L442.3,1032.07H590.263ZM346.146,378.6a84.64,84.64,0,1,1-84.64,84.64A84.64,84.64,0,0,1,346.146,378.6ZM261.381,763.6a52.442,52.442,0,1,1-52.442,52.441A52.441,52.441,0,0,1,261.381,763.6Z"/>
  <path id="SP-_blue_copy" data-name="SP- (blue) copy" class="cls-2" d="M590.263,355.654h67.642c83.5,0,119.43,13.74,119.43,104.634,0,96.178-43.333,123.658-107.8,123.658H590.263V355.654Zm0,676.416V700.205h99.349c57.073,1.057,119.43-10.569,165.934-47.561,56.016-44.39,73.984-120.487,73.984-188.129,0-110.975-43.373-224.158-185-224.158h-301.7L442.3,1032.07H590.263Z"/>
  <path id="_-IS_blue_copy_2" data-name="-IS (blue) copy 2" class="cls-3" d="M1240.43,480.369c-1.06-78.211,5.96-240.012-229.73-240.012-237.472,0-236.169-.216-236.169,0,0,42.276,16.71,274.89,41.019,310.825,60.243,79.267,156.422,122.6,233.58,182.844,38.04,26.423,59.18,58.13,59.18,104.634,0,60.244-30.12,57.224-92.47,57.224-72.929,0-95.657-20.232-92.486-97.386v-46.5H775.387L775.9,1032.14H1016.16c144.8,0,244.35-59.253,244.35-209.334,0-68.7-15.86-116.259-66.59-165.934-41.22-40.162-131.05-99.349-179.67-130C967.744,497.279,929.7,474.027,929.7,413.784c0-53.9,32.1-58.615,81.775-58.615,81.38,0,87.33,54.387,86.27,125.2h142.69Z"/>
  <path id="_-IS_blue_" data-name="-IS (blue)" class="cls-4" d="M923.015,1032.07l0.336-791.713H774.55l0.5,791.713H923.015Z"/>
</svg>
